<svg width="23" height="23" viewBox="0 0 23 23" fill="none" xmlns="http://www.w3.org/2000/svg">
<path d="M21.8736 15.7548C22.0753 15.5826 22.2003 15.3373 22.2212 15.0729C22.242 14.8085 22.1569 14.5467 21.9847 14.345C21.8125 14.1433 21.5672 14.0183 21.3028 13.9975C21.0384 13.9766 20.7765 14.0617 20.5749 14.2339L14.2378 19.6455C13.7 20.1047 13.0018 20.3316 12.2967 20.276C11.5916 20.2205 10.9375 19.8871 10.4783 19.3493L3.55139 11.2378C3.09211 10.7 2.86529 10.0017 2.92083 9.29667C2.97636 8.59162 3.30971 7.9375 3.84753 7.47823L10.1846 2.06668C10.3862 1.89445 10.5112 1.64916 10.5321 1.38476C10.5529 1.12037 10.4678 0.858525 10.2956 0.65684C10.1234 0.455156 9.87809 0.330149 9.61369 0.30932C9.3493 0.288491 9.08746 0.373546 8.88578 0.545774L2.54874 5.95732C1.60756 6.76105 1.0242 7.90575 0.927016 9.1396C0.829827 10.3735 1.22676 11.5954 2.0305 12.5366L8.95736 20.6481C9.7611 21.5893 10.9058 22.1726 12.1397 22.2698C13.3735 22.367 14.5954 21.9701 15.5366 21.1664L21.8736 15.7548ZM13.0934 3.43827C13.1089 3.30784 13.1499 3.18173 13.2141 3.06715C13.2783 2.95257 13.3645 2.85176 13.4676 2.77049C13.5708 2.68921 13.689 2.62906 13.8154 2.59347C13.9419 2.55788 14.0741 2.54755 14.2045 2.56306L20.0603 3.26081C20.3101 3.29044 20.5396 3.41315 20.703 3.60446C20.8664 3.79576 20.9516 4.04162 20.9418 4.293L20.714 10.1858C20.7034 10.4509 20.588 10.7008 20.3931 10.8808C20.1982 11.0607 19.9398 11.1558 19.6748 11.1452C19.4097 11.1346 19.1598 11.0192 18.9798 10.8243C18.7999 10.6294 18.7048 10.371 18.7154 10.1059L18.8551 6.49576L10.9586 13.239C10.7569 13.4112 10.4951 13.4963 10.2307 13.4754C9.96629 13.4546 9.721 13.3296 9.54877 13.1279C9.37654 12.9262 9.29148 12.6644 9.31231 12.4C9.33313 12.1356 9.45814 11.8903 9.65982 11.7181L17.5553 4.97572L13.9677 4.5484C13.8373 4.53293 13.7112 4.49191 13.5966 4.42769C13.482 4.36348 13.3812 4.27731 13.3 4.17413C13.2187 4.07095 13.1585 3.95276 13.1229 3.82633C13.0873 3.69989 13.0779 3.5687 13.0934 3.43827Z" fill="#222222"/>
</svg>
