<svg width="20" height="20" viewBox="0 0 20 20" fill="none" xmlns="http://www.w3.org/2000/svg">
<path d="M19.8948 0.271384C19.8866 0.231865 19.8674 0.19549 19.8393 0.166524C19.8113 0.137559 19.7755 0.117202 19.7363 0.107841C17.1215 -0.532033 11.0799 1.74819 7.80666 5.02308C7.22285 5.6027 6.69062 6.23214 6.21601 6.90427C5.20662 6.8149 4.19723 6.88952 3.33695 7.26487C0.909682 8.33416 0.202975 11.1242 0.00609746 12.3244C-0.00506981 12.3901 -0.000857511 12.4575 0.0184029 12.5213C0.0376634 12.5851 0.0714468 12.6435 0.117096 12.692C0.162745 12.7405 0.219016 12.7778 0.281481 12.8008C0.343947 12.8239 0.410904 12.8321 0.477087 12.8249L4.37491 12.3946C4.3777 12.6887 4.39543 12.9825 4.42804 13.2749C4.44765 13.4779 4.53769 13.6676 4.68251 13.8111L6.1919 15.3183C6.33539 15.463 6.52486 15.5531 6.72763 15.573C7.01806 15.6055 7.30996 15.6232 7.60219 15.6261L7.17451 19.5226C7.16737 19.5888 7.17566 19.6558 7.19873 19.7182C7.22179 19.7807 7.259 19.837 7.30744 19.8827C7.35588 19.9283 7.41423 19.9622 7.47792 19.9815C7.54161 20.0008 7.6089 20.0051 7.67452 19.994C8.87141 19.8018 11.6639 19.0945 12.7259 16.665C13.1009 15.804 13.1777 14.7986 13.0911 13.7932C13.7643 13.3181 14.3948 12.7853 14.9755 12.2007C18.259 8.93069 20.5243 3.01855 19.8948 0.271384ZM11.6996 8.29975C11.3997 7.99985 11.1955 7.61768 11.1127 7.20158C11.0299 6.78549 11.0723 6.35416 11.2344 5.96216C11.3966 5.57017 11.6712 5.23511 12.0237 4.99937C12.3761 4.76363 12.7904 4.6378 13.2143 4.6378C13.6382 4.6378 14.0526 4.76363 14.405 4.99937C14.7574 5.23511 15.0321 5.57017 15.1942 5.96216C15.3564 6.35416 15.3987 6.78549 15.3159 7.20158C15.2331 7.61768 15.0289 7.99985 14.7291 8.29975C14.5303 8.49903 14.2941 8.65713 14.0342 8.765C13.7743 8.87286 13.4957 8.92839 13.2143 8.92839C12.933 8.92839 12.6543 8.87286 12.3944 8.765C12.1345 8.65713 11.8984 8.49903 11.6996 8.29975Z" fill="#222222"/>
<path d="M6.08919 16.41C5.84454 16.6553 5.45213 16.7509 4.9798 16.8327C3.91862 17.0137 2.98156 16.0959 3.17218 15.0221C3.24495 14.615 3.46013 14.0444 3.59407 13.9104C3.62334 13.8816 3.64282 13.8444 3.64975 13.8039C3.65668 13.7635 3.6507 13.7219 3.63266 13.685C3.61462 13.6482 3.58544 13.618 3.54926 13.5986C3.51308 13.5793 3.47174 13.5719 3.43112 13.5775C2.8377 13.6501 2.28562 13.9194 1.86279 14.3425C0.81322 15.3939 0.714111 19.2952 0.714111 19.2952C0.714111 19.2952 4.61417 19.196 5.66374 18.1446C6.0877 17.7217 6.35708 17.1683 6.42848 16.5735C6.445 16.3868 6.21776 16.2755 6.08919 16.41Z" fill="#222222"/>
</svg>
