<svg width="31" height="35" viewBox="0 0 31 35" fill="none" xmlns="http://www.w3.org/2000/svg">
<g clip-path="url(#clip0_23_95)">
<path d="M23.1805 23.7792C23.2038 23.7693 23.227 23.7604 23.2493 23.7497C25.516 22.7499 27.2654 21.3079 28.4992 19.4245C29.7322 17.542 30.3496 15.2994 30.3496 12.6995C30.3496 10.0996 29.7322 7.79982 28.4992 5.89945C27.2654 3.99908 25.516 2.54186 23.2493 1.52423C20.9826 0.508373 18.2826 0 15.1502 0H0V6.59991H14.6999C17.1998 6.59991 19.0662 7.1333 20.3001 8.20008C21.533 9.26686 22.1504 10.767 22.1504 12.7004C22.1504 14.6338 21.533 16.0928 20.3001 17.1757C19.0662 18.2594 17.1998 18.8009 14.6999 18.8009H0V35.0009H8.10001V25.2507H15.1502C15.278 25.2507 15.404 25.2489 15.5299 25.2471L22.2505 35.0009H31L23.1805 23.7801V23.7792Z" fill="#222222"/>
</g>
<defs>
<clipPath id="clip0_23_95">
<rect width="31" height="35" fill="white"/>
</clipPath>
</defs>
</svg>
