<svg width="19" height="21" viewBox="0 0 19 21" fill="none" xmlns="http://www.w3.org/2000/svg">
<g clip-path="url(#clip0_23_97)">
<path d="M14.2074 14.2675C14.2217 14.2616 14.2359 14.2562 14.2496 14.2498C15.6388 13.6499 16.711 12.7847 17.4673 11.6547C18.223 10.5252 18.6013 9.17966 18.6013 7.6197C18.6013 6.05973 18.223 4.67989 17.4673 3.53967C16.711 2.39945 15.6388 1.52512 14.2496 0.914535C12.8603 0.305024 11.2055 0 9.28562 0H0V3.95995H9.00963C10.5418 3.95995 11.6857 4.27998 12.442 4.92005C13.1977 5.56012 13.576 6.46018 13.576 7.62023C13.576 8.78029 13.1977 9.65569 12.442 10.3054C11.6857 10.9557 10.5418 11.2805 9.00963 11.2805H0V21.0005H4.96452V15.1504H9.28562C9.36392 15.1504 9.44113 15.1493 9.51834 15.1483L13.6374 21.0005H19L14.2074 14.268V14.2675Z" fill="#222222"/>
</g>
<defs>
<clipPath id="clip0_23_97">
<rect width="19" height="21" fill="white"/>
</clipPath>
</defs>
</svg>
